<svg xmlns="http://www.w3.org/2000/svg" xmlns:xlink="http://www.w3.org/1999/xlink" viewBox="0 0 800 800"><defs><style>.a{fill:none;}.b{clip-path:url(#a);}.c{fill:#3f3936;}.d{fill:#7f85c0;}.e,.g{fill:#27aae1;}.f{fill:#fbb040;}.g,.i,.l,.p,.r,.s{opacity:0.5;}.h,.o{fill:#d7df23;}.h,.i,.r{fill-rule:evenodd;}.i{fill:#8dc63f;}.j{fill:#86162c;}.k{fill:#fff;}.m{fill:#ed1c24;}.n{fill:#2bb673;}.p{fill:#00a79d;}.q{fill:#ffde17;}.r{fill:#f7941e;}.s{fill:#92278f;}.t{opacity:0.1;}</style><clipPath id="a"><rect class="a" width="800" height="800"/></clipPath></defs><title>security Icon 7</title><g class="b"><rect class="c" x="-15.34" y="-13.32" width="827.8" height="827.79"/><path class="d" d="M538.35-36.65H502.57L477.26-15.41v30l25.31,21.23h11.69V162.19H488.17v5h9.92v3.3h-9.92v9.65h9.92v3.31h-9.92V187h26.09v20.94a4.69,4.69,0,0,0,4.68,4.69h3a4.69,4.69,0,0,0,4.69-4.69V35.85h11.69l25.3-21.23v-30Zm15.28,47.78L534.2,27.44H506.72L487.28,11.13V-11.93l19.44-16.31H534.2l19.43,16.31Z"/><path class="e" d="M642,6.87a32.66,32.66,0,0,0-11.58,63.2v9a4.69,4.69,0,0,0,4.28,4.67V188.47a4.68,4.68,0,0,0,4.68,4.69h5.24a4.68,4.68,0,0,0,4.68-4.69v-4.08h8.88V180h-4.65V175.8h4.65v-5.1h-6.46v-4.21h4.94a18.62,18.62,0,0,1-.26-3.08,18.22,18.22,0,0,1,.17-2.51h-3.4v-4.21h4.74a2.9,2.9,0,0,1,.27-.41v-3.89h-4.65v-4.21h4.65v-4.62H649.3V83.73a4.68,4.68,0,0,0,4.27-4.67v-9A32.66,32.66,0,0,0,642,6.87Zm0,23.42c-8.53,0-15.43-2.59-15.43-5.78s6.9-5.79,15.43-5.79,15.43,2.59,15.43,5.79S650.52,30.29,642,30.29Z"/><path class="f" d="M356.16-100.24c0-18.78-21.29-34-47.54-34s-47.55,15.22-47.55,34c0,16.86,17.17,30.85,39.69,33.53v6.47h-1.51a4.69,4.69,0,0,0-4.69,4.69v10.47a4.68,4.68,0,0,0,4.69,4.68h1.51v4a5,5,0,0,0,.1,1h-2.58a3.72,3.72,0,0,0-3.72,3.72A3.72,3.72,0,0,0,298.28-28h4.13V179.7a4.69,4.69,0,0,0,4.69,4.69h3a4.69,4.69,0,0,0,4.69-4.69V170h14.25v-4.61h6.43V135h-6.43v-4.61H314.82V-28H319a3.73,3.73,0,0,0,3.72-3.73A3.73,3.73,0,0,0,319-35.41h-2.58a5,5,0,0,0,.1-1v-4H318a4.68,4.68,0,0,0,4.69-4.68V-55.55A4.69,4.69,0,0,0,318-60.24h-1.51v-6.47C339-69.39,356.16-83.38,356.16-100.24ZM266-101.06c0-11,11.5-19.84,25.7-19.84a30.19,30.19,0,0,1,17.32,5.19,30.2,30.2,0,0,1,17.33-5.19c14.2,0,25.7,8.89,25.7,19.84s-11.5,19.85-25.7,19.85a30.2,30.2,0,0,1-17.33-5.19,30.19,30.19,0,0,1-17.32,5.19C277.54-81.21,266-90.1,266-101.06Z"/><path class="g" d="M207.25-39.86a29.77,29.77,0,0,0-34.31-24.39,29.77,29.77,0,0,0-24.39,34.31A29.78,29.78,0,0,0,177.76-5.13l-.26.43.65,3.84L177-.67a3.52,3.52,0,0,0-2.88,4.05l1.31,7.75a3.5,3.5,0,0,0,4,2.87l1.12-.19.5,3a3.79,3.79,0,0,0,.2.7l-1.91.33a2.79,2.79,0,1,0,.93,5.5l3.06-.52,26,153.58a3.5,3.5,0,0,0,4.05,2.87l2.24-.37a3.52,3.52,0,0,0,2.88-4l-1.21-7.16,10.54-1.79-.58-3.4,4.75-.81-3.8-22.53-4.76.8-.58-3.4-10.53,1.78L192.58,21.25l3.06-.52a2.79,2.79,0,0,0-.93-5.5l-1.91.32a3.54,3.54,0,0,0-.05-.72l-.5-3,1.12-.19a3.52,3.52,0,0,0,2.88-4L194.94-.13A3.5,3.5,0,0,0,190.89-3l-1.12.19L189-7.28h0A29.77,29.77,0,0,0,207.25-39.86ZM191-24.12a11.14,11.14,0,0,1-9.14,12.86A11.16,11.16,0,0,1,169-20.4a11.15,11.15,0,0,1-12.86-9.14,11.16,11.16,0,0,1,9.14-12.87,11.16,11.16,0,0,1,12.87,9.14,11.14,11.14,0,0,1,9.14-12.86A11.16,11.16,0,0,1,200.19-37,11.17,11.17,0,0,1,191-24.12Z"/><path class="h" d="M758.36,192.63l-4-.29V180.86H740.88v-.5h12.57v-11.7l4.1.3v11.43h13.31V164.61h-5.37a62.29,62.29,0,0,1-.07,7.13c-.18,1.44,1.43,4-1.56,4-.47,0-1.25-2.67-1.4-4.16a65.83,65.83,0,0,1-.07-6.88h-14c0,3.19,0,6.12,0,9.05,0,2.27-1,2.62-3.23,1.74V164.67h-4.33V14.5h4.2V7.21h2a2.73,2.73,0,0,0,2.73-2.73V1.93A2.73,2.73,0,0,0,747-.8h-2V-20a37.38,37.38,0,0,0,4.23-1.23,11.31,11.31,0,0,1-1.1-4.84,11.31,11.31,0,0,1,11.32-11.31,11.28,11.28,0,0,1,7.76,3.09,38.92,38.92,0,0,0,8.08-23.79,39.09,39.09,0,0,0-39.09-39.09,39.09,39.09,0,0,0-39.09,39.09,38.94,38.94,0,0,0,8,23.7,11.26,11.26,0,0,1,7.66-3A11.31,11.31,0,0,1,724.17-26a11.25,11.25,0,0,1-1.07,4.79A39.67,39.67,0,0,0,727.49-20V-.8h-2a2.73,2.73,0,0,0-2.73,2.73V4.48a2.73,2.73,0,0,0,2.73,2.73h2V14.5h4.19V208a4,4,0,0,0,4,4h1.18a4,4,0,0,0,4-4V196.57h5.51V185.85c2.52-1,3.25-.13,3.19,2.09-.1,2.89,0,5.79,0,8.65h14c0-3.21,0-6.14,0-9.06,0-2.31,1.1-2.49,3.21-1.63v10.76h5.18V180.93H758.36ZM736.28-36a10.77,10.77,0,0,1-10.75-10.27h0a10.78,10.78,0,0,1-10.78-10.78,10.78,10.78,0,0,1,10.78-10.77h.12a10.87,10.87,0,0,1-.12-1.52,10.77,10.77,0,0,1,10.77-10.77,10.78,10.78,0,0,1,10.78,10.77,10.87,10.87,0,0,1-.12,1.52h.12a10.78,10.78,0,0,1,10.77,10.77,10.78,10.78,0,0,1-10.77,10.78h0A10.77,10.77,0,0,1,736.28-36Z"/><path class="i" d="M477.26-74.53A15.23,15.23,0,0,0,462-89.77a15.15,15.15,0,0,0-7.84,2.19l-.81-.29a11.88,11.88,0,0,0,.16-1.9,11.81,11.81,0,0,0-11.81-11.81,11.82,11.82,0,0,0-11.82,11.81,11.88,11.88,0,0,0,.17,1.9q-.76.25-1.5.54a15.1,15.1,0,0,0-8.24-2.44A15.24,15.24,0,0,0,405.1-74.53,15.14,15.14,0,0,0,408.49-65a29,29,0,0,0-.77,6.62c0,15.4,12,28.21,27.82,30.89V137.28c0,2.59,1.66,4.69,3.71,4.69h3.87c2,0,3.7-2.1,3.7-4.69v-2.14a4.68,4.68,0,0,0,2.94-4.35v-8.31h14.06v-4.39H449.76v-4.4h9.93V109.3h-9.93v-3.53h14.06v-4.39H449.76V98.81h9.93V94.42h-9.93V90.54h9.93V86.15h-9.93V82.56h14.06V78.17H449.76V73.9a4.68,4.68,0,0,0-2.94-4.35V-27.28c16.36-2.27,28.91-15.32,28.91-31.07a29.05,29.05,0,0,0-1-7.72A15.08,15.08,0,0,0,477.26-74.53Zm-19.1,8.91c.51,1.86,9.06,3.81,9.06,5.81,0,9.73-6.36,18.09-15.44,21.73a11.75,11.75,0,0,0,.3-2.67c0-6.36-4.88-11.52-10.9-11.52s-10.9,5.16-10.9,11.52a12.35,12.35,0,0,0,.22,2.29C421.9-42.28,416-50.4,416-59.81c0-1.71,7.65-3.38,8-5-1.59-2-10-4.48-10-7.21a11.48,11.48,0,0,1,11.48-11.48,11.38,11.38,0,0,1,6.21,1.84c.37-.15.74-.28,1.12-.41a9.62,9.62,0,0,1-.12-1.43,8.91,8.91,0,0,1,8.9-8.9,8.91,8.91,0,0,1,8.91,8.9,8.45,8.45,0,0,1-.13,1.43l.61.22a11.44,11.44,0,0,1,5.91-1.65A11.48,11.48,0,0,1,468.37-72C468.37-69.64,459.38-67.45,458.16-65.62Z"/><path class="j" d="M51.74-22.63h2.4v-8.74H65.76l14.59-44.9L42.15-104,4-76.27l14.59,44.9H30.16v8.74h2.39V115.74S35.93,129,39.69,129s7.13-13.23,7.13-13.23v-8.27l8.48-9.09-8.48-6.62L51.17,86,46.82,75.22,52,63.47,46.82,52.9,53,44.23l-6.2-10.35V21.48L50.63,6.31,47-13.54h4.72ZM42.15-90a8.25,8.25,0,0,1,8.25,8.26,8.25,8.25,0,0,1-8.25,8.25,8.25,8.25,0,0,1-8.25-8.25A8.25,8.25,0,0,1,42.15-90ZM23.86-39.17V-49.46H60.44v10.29Z"/><path class="d" d="M538.35,739.37H502.57l-25.31,21.24v30l25.31,21.23h11.69V938.21H488.17v5h9.92v3.31h-9.92v9.65h9.92v3.31h-9.92V963h26.09V984a4.69,4.69,0,0,0,4.68,4.69h3a4.69,4.69,0,0,0,4.69-4.69V811.87h11.69l25.3-21.23v-30Zm15.28,47.78L534.2,803.46H506.72l-19.44-16.31V764.09l19.44-16.31H534.2l19.43,16.31Z"/><path class="e" d="M642,782.89a32.66,32.66,0,0,0-11.58,63.19v9a4.69,4.69,0,0,0,4.28,4.67V964.49a4.68,4.68,0,0,0,4.68,4.69h5.24a4.68,4.68,0,0,0,4.68-4.69v-4.08h8.88V956h-4.65v-4.21h4.65v-5.1h-6.46v-4.21h4.94a18.71,18.71,0,0,1-.26-3.08,18.22,18.22,0,0,1,.17-2.51h-3.4v-4.21h4.74a2.9,2.9,0,0,1,.27-.41v-3.89h-4.65V924.2h4.65v-4.62H649.3V859.75a4.68,4.68,0,0,0,4.27-4.67v-9A32.65,32.65,0,0,0,642,782.89Zm0,23.42c-8.53,0-15.43-2.59-15.43-5.78s6.9-5.79,15.43-5.79,15.43,2.59,15.43,5.79S650.52,806.31,642,806.31Z"/><path class="f" d="M356.16,675.78c0-18.78-21.29-34-47.54-34s-47.55,15.22-47.55,34c0,16.86,17.17,30.85,39.69,33.53v6.47h-1.51a4.69,4.69,0,0,0-4.69,4.69v10.47a4.68,4.68,0,0,0,4.69,4.68h1.51v4a5,5,0,0,0,.1,1h-2.58a3.73,3.73,0,0,0,0,7.45h4.13V955.72a4.69,4.69,0,0,0,4.69,4.69h3a4.69,4.69,0,0,0,4.69-4.69V946h14.25v-4.61h6.43V911h-6.43v-4.62H314.82V748.06H319a3.73,3.73,0,0,0,0-7.45h-2.58a5,5,0,0,0,.1-1v-4H318a4.68,4.68,0,0,0,4.69-4.68V720.47a4.69,4.69,0,0,0-4.69-4.69h-1.51v-6.47C339,706.63,356.16,692.64,356.16,675.78ZM266,675c0-11,11.5-19.84,25.7-19.84a30.19,30.19,0,0,1,17.32,5.19,30.2,30.2,0,0,1,17.33-5.19c14.2,0,25.7,8.88,25.7,19.84s-11.5,19.85-25.7,19.85a30.2,30.2,0,0,1-17.33-5.19,30.19,30.19,0,0,1-17.32,5.19C277.54,694.81,266,685.92,266,675Z"/><path class="g" d="M207.25,736.16a29.77,29.77,0,1,0-29.49,34.72c-.09.15-.17.3-.26.44l.65,3.84-1.12.19a3.52,3.52,0,0,0-2.88,4l1.31,7.74a3.52,3.52,0,0,0,4,2.89l1.12-.2.5,3a3.79,3.79,0,0,0,.2.7l-1.91.33a2.79,2.79,0,1,0,.93,5.5l3.06-.52,26,153.58a3.5,3.5,0,0,0,4.05,2.87l2.24-.37a3.53,3.53,0,0,0,2.88-4.06l-1.21-7.15,10.54-1.79-.58-3.4,4.75-.81-3.8-22.53-4.76.8-.58-3.41-10.53,1.79-19.8-117.07,3.06-.52a2.79,2.79,0,0,0-.93-5.5l-1.91.32a3.49,3.49,0,0,0-.05-.72l-.5-3,1.12-.19a3.52,3.52,0,0,0,2.88-4l-1.31-7.74a3.5,3.5,0,0,0-4.05-2.88l-1.12.19-.76-4.46h0A29.77,29.77,0,0,0,207.25,736.16ZM191,751.9a11.16,11.16,0,0,1-22,3.72,11.16,11.16,0,1,1,9.15-12.87A11.16,11.16,0,1,1,191,751.9Z"/><path class="h" d="M758.36,968.65l-4-.29V956.88H740.88v-.5h12.57v-11.7l4.1.3v11.43h13.31V940.63h-5.37a62.32,62.32,0,0,1-.07,7.13c-.18,1.44,1.43,4-1.56,4-.47,0-1.25-2.67-1.4-4.16a65.83,65.83,0,0,1-.07-6.88h-14c0,3.19,0,6.12,0,9,0,2.27-1,2.62-3.23,1.74V940.69h-4.33V790.52h4.2v-7.29h2a2.73,2.73,0,0,0,2.73-2.73V778a2.73,2.73,0,0,0-2.73-2.73h-2V756a37.38,37.38,0,0,0,4.23-1.23,11.3,11.3,0,0,1,18-13.06,39.09,39.09,0,1,0-62.09-.09,11.3,11.3,0,0,1,17.9,13.1,37.59,37.59,0,0,0,4.39,1.28v19.18h-2a2.73,2.73,0,0,0-2.73,2.73v2.55a2.73,2.73,0,0,0,2.73,2.73h2v7.29h4.19V984.05a4,4,0,0,0,4,4h1.18a4,4,0,0,0,4-4V972.59h5.51V961.87c2.52-1,3.25-.13,3.19,2.09-.1,2.89,0,5.79,0,8.65h14c0-3.21,0-6.14,0-9.06,0-2.31,1.1-2.5,3.21-1.63v10.76h5.18V957H758.36ZM736.28,740a10.77,10.77,0,0,1-10.75-10.27h0a10.78,10.78,0,1,1,0-21.55h.12a10.78,10.78,0,1,1,21.31,0h.12a10.78,10.78,0,0,1,0,21.55h0A10.77,10.77,0,0,1,736.28,740Z"/><path class="i" d="M477.26,701.49a15.21,15.21,0,0,0-23.07-13l-.81-.29a11.82,11.82,0,1,0-23.3,0q-.76.26-1.5.54a15.22,15.22,0,0,0-20.09,22.36,29,29,0,0,0-.77,6.62c0,15.4,12,28.21,27.82,30.89V913.3c0,2.59,1.66,4.69,3.71,4.69h3.87c2,0,3.7-2.1,3.7-4.69v-2.14a4.69,4.69,0,0,0,2.94-4.35V898.5h14.06v-4.39H449.76v-4.4h9.93v-4.39h-9.93v-3.53h14.06V877.4H449.76v-2.57h9.93v-4.39h-9.93v-3.88h9.93v-4.39h-9.93v-3.59h14.06v-4.39H449.76v-4.27a4.68,4.68,0,0,0-2.94-4.35V748.74c16.36-2.27,28.91-15.32,28.91-31.07a29.05,29.05,0,0,0-1-7.72A15.08,15.08,0,0,0,477.26,701.49Zm-19.1,8.91c.51,1.86,9.06,3.81,9.06,5.81,0,9.73-6.36,18.09-15.44,21.73a11.75,11.75,0,0,0,.3-2.67c0-6.36-4.88-11.52-10.9-11.52s-10.9,5.16-10.9,11.52a12.35,12.35,0,0,0,.22,2.29c-8.6-3.82-14.53-11.94-14.53-21.35,0-1.71,7.65-3.38,8-5-1.59-2-10-4.48-10-7.21a11.46,11.46,0,0,1,17.69-9.64c.37-.15.74-.28,1.12-.41a9.62,9.62,0,0,1-.12-1.43,8.91,8.91,0,0,1,17.81,0,8.45,8.45,0,0,1-.13,1.43l.61.22A11.46,11.46,0,0,1,468.37,704C468.37,706.38,459.38,708.57,458.16,710.4Z"/><path class="j" d="M51.74,753.39h2.4v-8.74H65.76l14.59-44.9L42.15,672,4,699.75l14.59,44.9H30.16v8.74h2.39V891.76S35.93,905,39.69,905s7.13-13.23,7.13-13.23v-8.27l8.48-9.1-8.48-6.61L51.17,862l-4.35-10.75L52,839.49l-5.18-10.57,6.2-8.67-6.2-10.35V797.5l3.81-15.17L47,762.48h4.72ZM42.15,686a8.26,8.26,0,1,1-8.25,8.25A8.25,8.25,0,0,1,42.15,686ZM23.86,736.85V726.56H60.44v10.29Z"/><path class="k" d="M635.06,424.65v-8.14a8.11,8.11,0,0,0-8.33-7.87h-50a8.11,8.11,0,0,0-8.33,7.87V452.7a8.1,8.1,0,0,0,8.33,7.86h50a8.11,8.11,0,0,0,8.33-7.86v-2.48h-10.9v-4.35h10.9v-6h-10.9v-4.35h10.9V429h-10.9v-4.35Zm-30.41,14.16v5.45c0,1.27-1.31,2.31-2.92,2.31s-2.92-1-2.92-2.31v-5.45a6.74,6.74,0,1,1,5.84,0Z"/><path class="k" d="M584.37,397.55a13.12,13.12,0,0,1,13.12-13.12H606a13.13,13.13,0,0,1,13.12,13.12v9.19h9.3v-12a18,18,0,0,0-17.95-18H593a18,18,0,0,0-17.95,18v12h9.3Z"/><path class="k" d="M653.78,425.33a24.6,24.6,0,0,1,4.05-.31,6.76,6.76,0,0,1,4.59,1.35,4.43,4.43,0,0,1,1.43,3.42,4.77,4.77,0,0,1-1.27,3.49,6.75,6.75,0,0,1-5,1.8,7.36,7.36,0,0,1-1.7-.15v6.55h-2.11Zm2.11,7.88a7.13,7.13,0,0,0,1.75.17c2.54,0,4.1-1.24,4.1-3.49s-1.53-3.2-3.86-3.2a8.74,8.74,0,0,0-2,.17Z"/><path class="k" d="M672.48,441.48l-.17-1.48h-.07a4.39,4.39,0,0,1-3.59,1.75,3.35,3.35,0,0,1-3.59-3.37c0-2.84,2.52-4.39,7.05-4.37v-.24a2.42,2.42,0,0,0-2.66-2.72,5.83,5.83,0,0,0-3.06.88l-.48-1.41a7.27,7.27,0,0,1,3.85-1c3.59,0,4.46,2.45,4.46,4.8v4.39a16,16,0,0,0,.2,2.81Zm-.32-6c-2.32-.05-5,.36-5,2.64a1.89,1.89,0,0,0,2,2,2.92,2.92,0,0,0,2.83-2,2.38,2.38,0,0,0,.12-.68Z"/><path class="k" d="M677.38,439.3a5.59,5.59,0,0,0,2.81.84c1.55,0,2.28-.77,2.28-1.74s-.61-1.58-2.18-2.16c-2.11-.75-3.11-1.91-3.11-3.32,0-1.89,1.53-3.44,4.05-3.44a6,6,0,0,1,2.89.72l-.54,1.56a4.57,4.57,0,0,0-2.4-.68c-1.26,0-2,.73-2,1.6s.7,1.4,2.23,2c2,.77,3.08,1.79,3.08,3.54,0,2.06-1.6,3.51-4.39,3.51a6.68,6.68,0,0,1-3.3-.8Z"/><path class="k" d="M687,439.3a5.59,5.59,0,0,0,2.81.84c1.55,0,2.28-.77,2.28-1.74s-.6-1.58-2.18-2.16c-2.11-.75-3.1-1.91-3.1-3.32,0-1.89,1.52-3.44,4-3.44a6,6,0,0,1,2.89.72l-.53,1.56a4.57,4.57,0,0,0-2.4-.68c-1.27,0-2,.73-2,1.6s.7,1.4,2.23,2c2,.77,3.08,1.79,3.08,3.54,0,2.06-1.6,3.51-4.39,3.51a6.61,6.61,0,0,1-3.29-.8Z"/><path class="k" d="M697.72,429.74l1.55,6c.34,1.31.66,2.52.88,3.73h.07c.27-1.19.65-2.45,1-3.71l1.92-6H705l1.82,5.87c.44,1.41.78,2.64,1,3.83h.07a36,36,0,0,1,.9-3.8l1.67-5.9h2.11l-3.78,11.74h-1.94l-1.79-5.6c-.41-1.31-.75-2.48-1.05-3.86h0a34.73,34.73,0,0,1-1.07,3.88L701,441.48h-1.94l-3.54-11.74Z"/><path class="k" d="M725.1,435.51c0,4.34-3,6.24-5.85,6.24-3.17,0-5.62-2.33-5.62-6,0-3.93,2.57-6.23,5.82-6.23S725.1,431.93,725.1,435.51Zm-9.31.13c0,2.57,1.47,4.5,3.56,4.5s3.56-1.91,3.56-4.55c0-2-1-4.51-3.51-4.51S715.79,433.4,715.79,435.64Z"/><path class="k" d="M727.79,433.4c0-1.38,0-2.57-.1-3.66h1.87l.07,2.31h.1a3.51,3.51,0,0,1,3.25-2.57,2.2,2.2,0,0,1,.6.07v2a3,3,0,0,0-.72-.07,3,3,0,0,0-2.86,2.74,5.81,5.81,0,0,0-.1,1v6.26h-2.11Z"/><path class="k" d="M745.61,424.26v14.19c0,1,0,2.23.1,3h-1.92l-.09-2h-.05a4.36,4.36,0,0,1-4,2.31c-2.84,0-5-2.4-5-6,0-3.9,2.4-6.3,5.26-6.3a3.93,3.93,0,0,1,3.54,1.79h.05v-7Zm-2.13,10.26a3.94,3.94,0,0,0-.1-.9,3.14,3.14,0,0,0-3.08-2.47c-2.2,0-3.51,1.94-3.51,4.53,0,2.38,1.16,4.34,3.46,4.34a3.21,3.21,0,0,0,3.13-2.54,3.82,3.82,0,0,0,.1-.92Z"/><g class="l"><path class="m" d="M249.88,429.94c10-7.4,15.06-11.53,18.29-17,4.55-7.7,1.79-14.22-4-16.78a11,11,0,0,0-14.32,5,11,11,0,0,0-14.31-5c-5.76,2.56-8.52,9.08-4,16.78C234.83,418.41,239.9,422.54,249.88,429.94Z"/></g><path class="g" d="M102,275.8,84.39,257.53a2,2,0,0,0-2.83,0L63.94,275.8c-.78.81-.48,1.47.68,1.47h4.65v17a2.05,2.05,0,0,0,2.1,2h7.4v-11h8.41v11h7.4a2.05,2.05,0,0,0,2.1-2v-17h4.65C102.48,277.27,102.79,276.61,102,275.8Z"/><g class="l"><path class="n" d="M423.31,560.82l-.6,2.37c-1.83.69-3.28,1.21-4.37,1.57a12.05,12.05,0,0,1-3.78.54,7.76,7.76,0,0,1-5.15-1.54,4.89,4.89,0,0,1-1.84-3.92,13.58,13.58,0,0,1,.14-1.89,22.15,22.15,0,0,1,.44-2.18l2.28-7.7c.2-.74.38-1.44.51-2.1a8.76,8.76,0,0,0,.21-1.81,2.69,2.69,0,0,0-.64-2.06,3.68,3.68,0,0,0-2.43-.58,6.53,6.53,0,0,0-1.82.27c-.62.17-1.14.34-1.59.5l.61-2.38c1.49-.58,2.92-1.08,4.28-1.49a13.55,13.55,0,0,1,3.88-.62,7.56,7.56,0,0,1,5.07,1.52,4.92,4.92,0,0,1,1.78,3.95c0,.33,0,.92-.12,1.76a11.91,11.91,0,0,1-.46,2.32L417.44,555c-.18.62-.35,1.32-.5,2.12a11.55,11.55,0,0,0-.22,1.79,2.52,2.52,0,0,0,.72,2.09,4.16,4.16,0,0,0,2.48.55,7.13,7.13,0,0,0,1.87-.28A10.35,10.35,0,0,0,423.31,560.82Zm.58-32.23A4.42,4.42,0,0,1,422.3,532a5.55,5.55,0,0,1-3.82,1.41,5.62,5.62,0,0,1-3.84-1.41,4.4,4.4,0,0,1-1.6-3.42,4.45,4.45,0,0,1,1.6-3.44,5.63,5.63,0,0,1,3.84-1.42,5.56,5.56,0,0,1,3.82,1.42A4.48,4.48,0,0,1,423.89,528.59Z"/></g><rect class="d" x="561.71" y="257.23" width="9.78" height="9.78"/><rect class="d" x="576.38" y="257.23" width="9.78" height="9.78"/><rect class="d" x="591.05" y="257.23" width="9.78" height="9.78"/><rect class="d" x="561.71" y="271.71" width="9.78" height="9.79"/><rect class="d" x="576.38" y="271.71" width="9.78" height="9.79"/><rect class="d" x="591.05" y="271.71" width="9.78" height="9.79"/><rect class="d" x="561.71" y="286.2" width="9.78" height="9.78"/><rect class="d" x="576.38" y="286.2" width="9.78" height="9.78"/><rect class="d" x="591.05" y="286.2" width="9.78" height="9.78"/><path class="i" d="M97.71,554.77c-4.41,0-8-2.12-8-4.7s1.56-3.74,2.6-4.71,2.6-4.79,2.6-10.65v-2.27a10.75,10.75,0,0,0-10.78-10.66H82.35a10.75,10.75,0,0,0-10.78,10.66v2.27c0,5.86,1.43,9.27,2.81,10.65,1.09,1.1,2.82,2.12,2.82,4.71s-3.82,4.7-8.48,4.7-8.48,2.81-8.48,6.25c0,8.48,45.48,8.14,45.48,0C105.72,557.58,102.11,554.77,97.71,554.77Z"/><g class="l"><path class="o" d="M217.72,570.12a1,1,0,0,1,0-2.06h64.33a1,1,0,1,1,0,2.06Z"/><rect class="o" x="224.92" y="530.91" width="9.6" height="31.93"/><rect class="o" x="239.32" y="518.91" width="9.6" height="43.93"/><rect class="o" x="252.77" y="532.83" width="9.6" height="30.01"/><rect class="o" x="267.17" y="542.91" width="9.6" height="19.93"/></g><path class="p" d="M272.42,291.17,255.67,277l16.83-14.76a2,2,0,0,1,.13.7v27.29A2.18,2.18,0,0,1,272.42,291.17Zm-43,1.35h40.93a2.4,2.4,0,0,0,.71-.12l-16.77-14.17-2.18,1.92a3.6,3.6,0,0,1-4.62,0l-2.18-1.92-16.72,14.13A2.31,2.31,0,0,0,229.42,292.52Zm-2.19-30.15a2.39,2.39,0,0,0-.08.59v27.29a2.38,2.38,0,0,0,.15.81l16.62-14Zm23.68,16.41,20.38-17.88a2.27,2.27,0,0,0-.94-.21H229.42a2.15,2.15,0,0,0-1,.27l20.31,17.82A1.83,1.83,0,0,0,250.91,278.78Z"/><g class="l"><path class="e" d="M580.17,566.59l-.24-.29-.06-.38a20.45,20.45,0,0,1-.31-3.61,19.62,19.62,0,0,1,7.09-15.42,19.3,19.3,0,0,0-9.23-8.3l-2.76-1.13,2.56-1.54a9.86,9.86,0,0,0,5-8.43c0-5.48-4.85-10.09-11-10.09s-11,4.61-11,10.09a9.9,9.9,0,0,0,5,8.43l2.56,1.54-2.76,1.13c-7.13,2.91-12.39,10.83-12.39,20.23a23.8,23.8,0,0,0,.3,3.81,23.6,23.6,0,0,0,18.33,9,22.81,22.81,0,0,0,11-2.84A22.15,22.15,0,0,1,580.17,566.59Z"/><path class="e" d="M600.86,547.34l-2.76-1.13,2.56-1.53a7.12,7.12,0,0,0,3.6-6.07c0-3.92-3.49-7.26-8-7.26s-8,3.34-8,7.26a7.11,7.11,0,0,0,3.61,6.07l2.56,1.53-2.76,1.13c-.4.17-.79.36-1.17.56a13,13,0,0,0-1.28.79,12.24,12.24,0,0,0-1.23.95,16.75,16.75,0,0,0-5.46,12.67,17.55,17.55,0,0,0,.2,2.73,21.22,21.22,0,0,0,2,2.11c.38.34.79.66,1.19,1s.85.6,1.29.88a16.9,16.9,0,0,0,9,2.63A17.49,17.49,0,0,0,609.8,565a18.86,18.86,0,0,0,.2-2.73C610,555.33,606.09,549.48,600.86,547.34Z"/></g><g class="l"><path class="f" d="M99.4,418.23a11.18,11.18,0,0,0,9.58-6.48l5.71-14.23c1.43-3.56-.54-6.48-4.38-6.48H74.09c-3.84,0-5.81,2.92-4.38,6.48l5.71,14.23A11.18,11.18,0,0,0,85,418.23Z"/><path class="f" d="M84.66,430a4.12,4.12,0,1,1-4.12-4.12A4.11,4.11,0,0,1,84.66,430Z"/><path class="f" d="M106.49,430a4.11,4.11,0,1,1-4.11-4.12A4.11,4.11,0,0,1,106.49,430Z"/><path class="f" d="M74.15,425.09,72,423.65,62.77,402h-9.6a2.38,2.38,0,1,1,0-4.75H64.34l2.19,1.45,9.19,21.65h29.83a2.37,2.37,0,1,1,0,4.74Z"/></g><g class="l"><path class="q" d="M420.1,414.57a1.45,1.45,0,0,1-1.45,1.46h-8.73a1.46,1.46,0,0,1-1.46-1.46v-4.18H390.08v18.93a4.73,4.73,0,0,0,4.73,4.73h38.94a4.74,4.74,0,0,0,4.74-4.73V410.39H420.1Z"/><path class="q" d="M433.75,398.92H422.47v-4.73a3.09,3.09,0,0,0-3.09-3.09H409.19a3.09,3.09,0,0,0-3.1,3.09v4.73H394.81a4.74,4.74,0,0,0-4.73,4.74v5.28h48.41v-5.28A4.74,4.74,0,0,0,433.75,398.92Zm-24.38-4.54h9.83v4.54h-9.83Z"/></g><g class="l"><path class="e" d="M414.29,301.88h0a6.73,6.73,0,0,1-4-1.9,7.73,7.73,0,0,0-.93-.69c-5.85-3.1-17.72-1.49-17.84-1.47a1.28,1.28,0,0,1-1.05-.32,1.3,1.3,0,0,1-.46-1V266a1.34,1.34,0,0,1,.51-1.05,1.31,1.31,0,0,1,1.13-.24c1.87.45,5.14,1.19,6,1.24a1.33,1.33,0,0,1-.16,2.66,43.36,43.36,0,0,1-4.83-.93V295c3.59-.35,12.62-.88,17.94,1.94a9.14,9.14,0,0,1,1.35,1,4.81,4.81,0,0,0,2.35,1.32h0a5.14,5.14,0,0,0,2.41-1.39,8,8,0,0,1,1.39-1c5.32-2.81,14.24-2.21,17.81-1.83V267.44l-4.68,1.13a1.33,1.33,0,0,1-.63-2.59l6.34-1.52a1.35,1.35,0,0,1,1.13.25,1.33,1.33,0,0,1,.51,1V296.5a1.31,1.31,0,0,1-.47,1,1.33,1.33,0,0,1-1.07.31c-.11,0-11.86-1.73-17.7,1.36a7.9,7.9,0,0,0-.95.72C417.37,300.73,416,301.88,414.29,301.88Z"/><path class="e" d="M413.44,296.37v-1l-.41-.23c-4.26-2.45-10.85-2.81-14.4-2.81h-1.52v-29.2c0-2.28,1.3-3.64,3.5-3.64,3.85,0,11.35,4.87,13.62,6.74,2.33-1.85,10.14-6.38,13.87-6.38a3.08,3.08,0,0,1,3.36,3.28v29.2h-1.52c-3.59,0-10.24.38-14.5,2.86l-.41.25v.85l-.74-.43Zm2.65-28.2,0,.67V291.9c3.94-1.65,8.79-2.14,12.68-2.22V263.13c0-.48,0-.62-.69-.62C425,262.51,418.1,266.79,416.09,268.17Zm-16.32,21.51a36.28,36.28,0,0,1,12.6,2.18V268.14c-1.95-1.47-8.7-6-11.76-6-.58,0-.84,0-.84,1Z"/></g><path class="r" d="M696.35,541.69l5.5,3.86,5.49,3.86h0l1.95,1.37-.75,2.21h0l-2.11,6.26-2.12,6.27c-.4,1.2.14,1.58,1.2.83l5.48-3.88,5.47-3.89h0l1.95-1.37,1.93,1.37h0l5.48,3.89,5.48,3.88c1.06.75,1.6.37,1.19-.83l-2.11-6.27L728.26,553h0l-.74-2.21,7.44-5.23,5.5-3.85c1.07-.75.86-1.37-.45-1.37l-6.79,0-6.78,0H724l-2.82-8.49-2.08-6.26c-.41-1.22-1.07-1.22-1.47,0l-2.08,6.26-2.82,8.49h-2.4l-6.78,0-6.79,0C695.49,540.33,695.28,541,696.35,541.69Z"/><path class="s" d="M738.67,272.57H725V258.86a3.27,3.27,0,0,0-3.48-3h-6.15a3.27,3.27,0,0,0-3.48,3v13.71H698.14a3.27,3.27,0,0,0-3,3.48v6.15a3.27,3.27,0,0,0,3,3.48h13.71v13.71a3.27,3.27,0,0,0,3.48,3h6.15a3.27,3.27,0,0,0,3.48-3V285.68h13.71a3.27,3.27,0,0,0,3-3.48v-6.15A3.27,3.27,0,0,0,738.67,272.57Z"/><g class="l"><path class="m" d="M249.88,789.29c10-7.4,15.06-11.53,18.29-17,4.55-7.7,1.79-14.22-4-16.78a11,11,0,0,0-14.32,5,11,11,0,0,0-14.31-5c-5.76,2.56-8.52,9.08-4,16.78C234.83,777.76,239.9,781.89,249.88,789.29Z"/></g><path class="g" d="M102,635.14,84.39,616.88a1.94,1.94,0,0,0-2.83,0L63.94,635.14c-.78.82-.48,1.48.68,1.48h4.65v17a2.05,2.05,0,0,0,2.1,2h7.4V644.69h8.41v10.95h7.4a2.05,2.05,0,0,0,2.1-2v-17h4.65C102.48,636.62,102.79,636,102,635.14Z"/><rect class="d" x="561.71" y="616.58" width="9.78" height="9.78"/><rect class="d" x="576.38" y="616.58" width="9.78" height="9.78"/><rect class="d" x="591.05" y="616.58" width="9.78" height="9.78"/><rect class="d" x="561.71" y="631.06" width="9.78" height="9.79"/><rect class="d" x="576.38" y="631.06" width="9.78" height="9.79"/><rect class="d" x="591.05" y="631.06" width="9.78" height="9.79"/><rect class="d" x="561.71" y="645.55" width="9.78" height="9.78"/><rect class="d" x="576.38" y="645.55" width="9.78" height="9.78"/><rect class="d" x="591.05" y="645.55" width="9.78" height="9.78"/><path class="p" d="M272.42,650.52l-16.75-14.15,16.83-14.76a2,2,0,0,1,.13.7V649.6A2.18,2.18,0,0,1,272.42,650.52Zm-43,1.35h40.93a2.4,2.4,0,0,0,.71-.12l-16.77-14.17-2.18,1.92a3.6,3.6,0,0,1-4.62,0l-2.18-1.92-16.72,14.13A2.31,2.31,0,0,0,229.42,651.87Zm-2.19-30.15a2.39,2.39,0,0,0-.08.59V649.6a2.47,2.47,0,0,0,.15.81l16.62-14Zm23.68,16.41,20.38-17.88a2.12,2.12,0,0,0-.94-.21H229.42a2.26,2.26,0,0,0-1,.26l20.31,17.83A1.83,1.83,0,0,0,250.91,638.13Z"/><g class="l"><path class="f" d="M99.4,777.58A11.18,11.18,0,0,0,109,771.1l5.71-14.23c1.43-3.57-.54-6.48-4.38-6.48H74.09c-3.84,0-5.81,2.91-4.38,6.48l5.71,14.23A11.18,11.18,0,0,0,85,777.58Z"/><path class="f" d="M84.66,789.34a4.12,4.12,0,1,1-4.12-4.12A4.11,4.11,0,0,1,84.66,789.34Z"/><path class="f" d="M106.49,789.34a4.11,4.11,0,1,1-4.11-4.12A4.11,4.11,0,0,1,106.49,789.34Z"/><path class="f" d="M74.15,784.44,72,783l-9.19-21.66h-9.6a2.37,2.37,0,1,1,0-4.74H64.34L66.53,758l9.19,21.66h29.83a2.37,2.37,0,1,1,0,4.74Z"/></g><g class="l"><path class="q" d="M420.1,773.92a1.45,1.45,0,0,1-1.45,1.46h-8.73a1.46,1.46,0,0,1-1.46-1.46v-4.18H390.08v18.93a4.73,4.73,0,0,0,4.73,4.73h38.94a4.74,4.74,0,0,0,4.74-4.73V769.74H420.1Z"/><path class="q" d="M433.75,758.27H422.47v-4.73a3.1,3.1,0,0,0-3.09-3.1H409.19a3.11,3.11,0,0,0-3.1,3.1v4.73H394.81a4.73,4.73,0,0,0-4.73,4.73v5.28h48.41V763A4.74,4.74,0,0,0,433.75,758.27Zm-24.38-4.55h9.83v4.55h-9.83Z"/></g><g class="l"><path class="e" d="M414.29,661.23h0a6.69,6.69,0,0,1-4-1.91,8.68,8.68,0,0,0-.93-.68c-5.85-3.1-17.72-1.49-17.84-1.47a1.32,1.32,0,0,1-1.05-.32,1.3,1.3,0,0,1-.46-1V625.34a1.34,1.34,0,0,1,.51-1.05,1.29,1.29,0,0,1,1.13-.25c1.87.46,5.14,1.19,6,1.25a1.33,1.33,0,0,1-.16,2.66,45.81,45.81,0,0,1-4.83-.93v27.33c3.59-.35,12.62-.89,17.94,1.94a8.45,8.45,0,0,1,1.35,1,4.79,4.79,0,0,0,2.35,1.31h0a5.19,5.19,0,0,0,2.41-1.38,8,8,0,0,1,1.39-1c5.32-2.82,14.24-2.21,17.81-1.83V626.79l-4.68,1.13a1.33,1.33,0,0,1-.63-2.59l6.34-1.52a1.29,1.29,0,0,1,1.13.25,1.33,1.33,0,0,1,.51,1v30.75a1.31,1.31,0,0,1-.47,1,1.33,1.33,0,0,1-1.07.31c-.11,0-11.86-1.74-17.7,1.36a7.63,7.63,0,0,0-.95.71C417.37,660.08,416,661.23,414.29,661.23Z"/><path class="e" d="M413.44,655.71v-1l-.41-.23c-4.26-2.45-10.85-2.81-14.4-2.81h-1.52V622.47c0-2.27,1.3-3.64,3.5-3.64,3.85,0,11.35,4.87,13.62,6.74,2.33-1.85,10.14-6.38,13.87-6.38a3.08,3.08,0,0,1,3.36,3.28v29.21h-1.52c-3.59,0-10.24.37-14.5,2.86l-.41.24v.85l-.74-.42Zm2.65-28.19,0,.67v23.06A35.74,35.74,0,0,1,428.79,649V622.47c0-.47,0-.61-.69-.61C425,621.86,418.1,626.13,416.09,627.52ZM399.77,649a36,36,0,0,1,12.6,2.18V627.49c-1.95-1.47-8.7-6-11.76-6-.58,0-.84,0-.84,1Z"/></g><path class="s" d="M738.67,631.92H725V618.21a3.27,3.27,0,0,0-3.48-3h-6.15a3.27,3.27,0,0,0-3.48,3v13.71H698.14a3.27,3.27,0,0,0-3,3.48v6.15a3.27,3.27,0,0,0,3,3.48h13.71v13.71a3.27,3.27,0,0,0,3.48,3h6.15a3.27,3.27,0,0,0,3.48-3V645h13.71a3.27,3.27,0,0,0,3-3.48V635.4A3.27,3.27,0,0,0,738.67,631.92Z"/><g class="l"><path class="m" d="M249.88,48.41c10-7.4,15.06-11.53,18.29-17,4.55-7.7,1.79-14.22-4-16.78a11,11,0,0,0-14.32,5,11,11,0,0,0-14.31-5c-5.76,2.56-8.52,9.08-4,16.78C234.83,36.88,239.9,41,249.88,48.41Z"/></g><g class="l"><path class="n" d="M423.31,179.29l-.6,2.37c-1.83.69-3.28,1.22-4.37,1.57a12.05,12.05,0,0,1-3.78.54,7.76,7.76,0,0,1-5.15-1.54,4.89,4.89,0,0,1-1.84-3.92,13.58,13.58,0,0,1,.14-1.89,22.15,22.15,0,0,1,.44-2.18l2.28-7.7c.2-.74.38-1.44.51-2.1a8.76,8.76,0,0,0,.21-1.81,2.69,2.69,0,0,0-.64-2.06,3.74,3.74,0,0,0-2.43-.58,6.53,6.53,0,0,0-1.82.27c-.62.17-1.14.34-1.59.5l.61-2.38c1.49-.58,2.92-1.08,4.28-1.49a13.55,13.55,0,0,1,3.88-.62,7.62,7.62,0,0,1,5.07,1.52,4.91,4.91,0,0,1,1.78,3.94q0,.51-.12,1.77a11.91,11.91,0,0,1-.46,2.32l-2.27,7.68c-.18.62-.35,1.32-.5,2.12a11.55,11.55,0,0,0-.22,1.79,2.52,2.52,0,0,0,.72,2.09,4.16,4.16,0,0,0,2.48.55,7.13,7.13,0,0,0,1.87-.28A10.35,10.35,0,0,0,423.31,179.29Zm.58-32.23a4.42,4.42,0,0,1-1.59,3.42,5.55,5.55,0,0,1-3.82,1.41,5.62,5.62,0,0,1-3.84-1.41,4.47,4.47,0,0,1,0-6.85,5.59,5.59,0,0,1,3.84-1.43,5.52,5.52,0,0,1,3.82,1.43A4.44,4.44,0,0,1,423.89,147.06Z"/></g><path class="i" d="M97.71,173.24c-4.41,0-8-2.12-8-4.7s1.56-3.74,2.6-4.71,2.6-4.79,2.6-10.65v-2.27a10.75,10.75,0,0,0-10.78-10.66H82.35a10.75,10.75,0,0,0-10.78,10.66v2.27c0,5.86,1.43,9.27,2.81,10.65,1.09,1.1,2.82,2.12,2.82,4.71s-3.82,4.7-8.48,4.7-8.48,2.81-8.48,6.25c0,8.48,45.48,8.14,45.48,0C105.72,176.05,102.11,173.24,97.71,173.24Z"/><g class="l"><path class="o" d="M217.72,188.59a1,1,0,1,1,0-2.06h64.33a1,1,0,0,1,0,2.06Z"/><rect class="o" x="224.92" y="149.38" width="9.6" height="31.93"/><rect class="o" x="239.32" y="137.38" width="9.6" height="43.93"/><rect class="o" x="252.77" y="151.31" width="9.6" height="30.01"/><rect class="o" x="267.17" y="161.39" width="9.6" height="19.93"/></g><g class="l"><path class="e" d="M580.17,185.06l-.24-.29-.06-.38a20.45,20.45,0,0,1-.31-3.61,19.62,19.62,0,0,1,7.09-15.42,19.3,19.3,0,0,0-9.23-8.3l-2.76-1.13,2.56-1.53a9.87,9.87,0,0,0,5-8.44c0-5.48-4.85-10.09-11-10.09s-11,4.61-11,10.09a9.92,9.92,0,0,0,5,8.44l2.56,1.53-2.76,1.13c-7.13,2.91-12.39,10.83-12.39,20.23a23.8,23.8,0,0,0,.3,3.81,23.6,23.6,0,0,0,18.33,9,22.81,22.81,0,0,0,11-2.84A23.32,23.32,0,0,1,580.17,185.06Z"/><path class="e" d="M600.86,165.82l-2.76-1.14,2.56-1.53a7.12,7.12,0,0,0,3.6-6.07c0-3.92-3.49-7.26-8-7.26s-8,3.34-8,7.26a7.11,7.11,0,0,0,3.61,6.07l2.56,1.53-2.76,1.14a12.47,12.47,0,0,0-1.17.55,13,13,0,0,0-1.28.79,12.24,12.24,0,0,0-1.23,1,16.75,16.75,0,0,0-5.46,12.67,17.55,17.55,0,0,0,.2,2.73,21.22,21.22,0,0,0,2,2.11c.38.34.79.66,1.19,1a15.6,15.6,0,0,0,1.29.89,16.9,16.9,0,0,0,9,2.63,17.49,17.49,0,0,0,13.52-6.6,18.86,18.86,0,0,0,.2-2.73C610,173.8,606.09,168,600.86,165.82Z"/></g><g class="l"><path class="f" d="M99.4,36.7A11.16,11.16,0,0,0,109,30.22L114.69,16c1.43-3.56-.54-6.48-4.38-6.48H74.09c-3.84,0-5.81,2.92-4.38,6.48l5.71,14.23A11.16,11.16,0,0,0,85,36.7Z"/><path class="f" d="M84.66,48.46a4.12,4.12,0,1,1-4.12-4.12A4.11,4.11,0,0,1,84.66,48.46Z"/><path class="f" d="M106.49,48.46a4.11,4.11,0,1,1-4.11-4.12A4.11,4.11,0,0,1,106.49,48.46Z"/><path class="f" d="M74.15,43.56,72,42.12,62.77,20.47h-9.6a2.38,2.38,0,1,1,0-4.75H64.34l2.19,1.45,9.19,21.65h29.83a2.37,2.37,0,1,1,0,4.74Z"/></g><g class="l"><path class="q" d="M420.1,33a1.45,1.45,0,0,1-1.45,1.46h-8.73A1.46,1.46,0,0,1,408.46,33V28.86H390.08V47.79a4.73,4.73,0,0,0,4.73,4.73h38.94a4.74,4.74,0,0,0,4.74-4.73V28.86H420.1Z"/><path class="q" d="M433.75,17.39H422.47V12.67a3.09,3.09,0,0,0-3.09-3.1H409.19a3.1,3.1,0,0,0-3.1,3.1v4.72H394.81a4.74,4.74,0,0,0-4.73,4.74v5.28h48.41V22.13A4.74,4.74,0,0,0,433.75,17.39Zm-24.38-4.55h9.83v4.55h-9.83Z"/></g><path class="r" d="M696.35,160.16l5.5,3.86,5.49,3.86h0l1.95,1.37-.75,2.21h0l-2.11,6.26L704.31,184c-.4,1.21.14,1.58,1.2.83l5.48-3.88,5.47-3.89h0l1.95-1.37,1.93,1.37h0l5.48,3.89,5.48,3.88c1.06.75,1.6.38,1.19-.83l-2.11-6.27-2.12-6.26h0l-.74-2.21L735,164l5.5-3.85c1.07-.75.86-1.37-.45-1.37l-6.79,0-6.78,0H724l-2.82-8.48-2.08-6.27c-.41-1.22-1.07-1.22-1.47,0l-2.08,6.27-2.82,8.48h-2.4l-6.78,0-6.79,0C695.49,158.8,695.28,159.42,696.35,160.16Z"/><g class="t"><path class="k" d="M534,425.83V388.36c0-20-17.18-36.21-38.35-36.21H265.43c-21.19,0-38.35,16.22-38.35,36.21V554.93c0,20,17.16,36.19,38.35,36.19H495.6c21.17,0,38.35-16.21,38.35-36.19V543.54h-50.2v-20H534V495.94h-50.2v-20H534v-30h-50.2v-20ZM394,491V516.1c0,5.86-6,10.61-13.44,10.61S367.08,522,367.08,516.1V491A31,31,0,1,1,394,491Z"/><path class="k" d="M300.61,301.1A60.4,60.4,0,0,1,361,240.7h39a60.4,60.4,0,0,1,60.4,60.4v42.28h42.81V288.3a82.65,82.65,0,0,0-82.65-82.67H340.44a82.66,82.66,0,0,0-82.65,82.67v55.08h42.82Z"/></g></g></svg>